Coordinates
version=1
nRows=28
nColumns=23
inDegrees=yes

Units are S.I. units (second, meters, Newtons, ...)
If the header above contains a line with 'inDegrees', this indicates whether rotational values are in degrees (yes) or radians (no).

endheader
time	pelvis_tilt	pelvis_list	pelvis_rotation	pelvis_tx	pelvis_ty	pelvis_tz	hip_flexion_r	hip_adduction_r	hip_rotation_r	knee_angle_r	knee_angle_r_beta	ankle_angle_r	subtalar_angle_r	mtp_angle_r	hip_flexion_l	hip_adduction_l	hip_rotation_l	knee_angle_l	knee_angle_l_beta	ankle_angle_l	subtalar_angle_l	mtp_angle_l
     24.22666667	      1.69040847	     -8.39990975	     -2.70290813	      2.24472058	      1.04065009	      1.01717912	     23.09547948	     11.00017938	     -5.35239343	     21.92070735	      0.38258852	      7.53497929	      3.21176465	      0.00000000	    -15.74221984	     -8.56638118	     -4.28666959	     44.87638824	      0.78324073	    -18.23471615	    -13.11714573	      0.00000000
     24.23333333	      2.35363157	     -8.64071240	     -2.73765129	      2.24513581	      1.03697419	      1.01694305	     22.43710156	     11.27579721	     -5.07894414	     23.37425856	      0.40795777	      7.11595186	      2.51632666	      0.00000000	    -15.72253983	     -8.92072839	     -4.22838143	     47.15511252	      0.82301197	    -17.20637649	    -14.39259378	      0.00000000
     24.24000000	      2.25705228	     -8.70864490	     -2.80014572	      2.24528187	      1.03224204	      1.01697841	     22.63733632	     11.65948685	     -3.87373541	     24.95080992	      0.43547378	      6.43347094	     -0.45221923	      0.00000000	    -14.71761017	     -9.05333164	     -3.72305828	     49.57651097	      0.86527335	    -16.15815337	    -15.86174129	      0.00000000
     24.24666667	      2.42035777	     -8.83158922	     -2.94456156	      2.24524181	      1.02755878	      1.01718610	     22.58288481	     12.10130378	     -2.88420230	     26.68194964	      0.46568787	      5.94654640	     -2.64363241	      0.00000000	    -14.00736536	     -9.29600043	     -3.56963765	     51.92535199	      0.90626836	    -15.04193566	    -17.11218171	      0.00000000
     24.25333333	      2.65020085	     -9.01476116	     -3.03974597	      2.24496981	      1.02282123	      1.01744772	     22.48414737	     12.64100089	     -1.96842154	     28.52240344	      0.49780985	      5.61973556	     -4.90604824	      0.00000000	    -13.30607853	     -9.64229215	     -3.41508700	     54.26300842	      0.94706816	    -13.88592472	    -18.19912212	      0.00000000
     24.26000000	      3.27345811	     -9.34021948	     -3.08708472	      2.24468639	      1.01834610	      1.01754401	     22.01019681	     13.18815323	     -1.63484285	     30.53957087	      0.53301606	      5.85304056	     -5.98889199	      0.00000000	    -13.06393515	    -10.17875998	     -3.47203022	     56.46228215	      0.98545273	    -12.79333634	    -19.37179540	      0.00000000
     24.26666667	      2.51146968	     -9.45615025	     -3.72535705	      2.24405100	      1.01233878	      1.01889887	     23.01169956	     14.17848141	      0.26693299	     32.63176412	      0.56953172	      5.55612396	     -9.65959181	      0.00000000	    -11.21659408	    -10.55218352	     -3.73565599	     58.90061084	      1.02800959	    -11.61783376	    -20.15452043	      0.00000000
     24.27333333	      3.13410844	     -9.82355198	     -3.75322437	      2.24341856	      1.00786961	      1.01902970	     22.57939202	     14.83441552	      0.55509389	     34.82218949	      0.60776186	      6.36034052	    -10.76948780	      0.00000000	    -10.86201688	    -11.18117296	     -3.77630861	     61.02380791	      1.06506637	    -10.59354564	    -21.17234104	      0.00000000
     24.28000000	      2.28840615	    -10.06495955	     -4.38434146	      2.24253762	      1.00179922	      1.02043564	     23.66738772	     15.95942694	      2.04724036	     37.01831843	      0.64609154	      6.60644368	    -13.76919671	      0.00000000	     -8.81688465	    -11.86328370	     -4.15630641	     63.43308646	      1.10711621	     -9.36472119	    -21.66858353	      0.00000000
     24.28666667	      2.07593204	    -10.35474803	     -4.73075104	      2.24164049	      0.99659927	      1.02113532	     24.05226626	     16.83647598	      2.81825141	     39.20416185	      0.68424170	      7.62373356	    -15.39016827	      0.00000000	     -7.41102462	    -12.56194384	     -4.35798817	     65.63732607	      1.14558745	     -8.34678650	    -22.31783721	      0.00000000
     24.29333333	      1.87443510	    -10.65845396	     -5.03310580	      2.24064084	      0.99163777	      1.02164069	     24.35265978	     17.67986880	      3.47548073	     41.28284829	      0.72052163	      8.78482349	    -16.76445751	      0.00000000	     -5.94132732	    -13.29398375	     -4.49039535	     67.78784389	      1.18312107	     -7.34718393	    -22.96906383	      0.00000000
     24.30000000	      1.65544796	    -10.93477597	     -5.30877376	      2.23956700	      0.98694940	      1.02197813	     24.57128634	     18.44887644	      4.06872386	     43.21436269	      0.75423291	     10.11312045	    -17.87100099	      0.00000000	     -4.37441723	    -13.99793859	     -4.54301562	     69.86290715	      1.21933775	     -6.40682381	    -23.57835150	      0.00000000
     24.30666667	      1.36885064	    -11.12733584	     -5.54958892	      2.23832937	      0.98252593	      1.02210132	     24.76307343	     19.07769835	      4.61939909	     44.97840557	      0.78502127	     11.52369748	    -18.75163039	      0.00000000	     -2.61906505	    -14.58540349	     -4.44722339	     71.87816225	      1.25451059	     -5.52792122	    -24.18224712	      0.00000000
     24.31333333	      1.92448967	    -11.33667788	     -5.60238036	      2.23680204	      0.97964644	      1.02162993	     23.86259657	     19.54226798	      5.13392217	     46.42373627	      0.81024705	     13.02052496	    -19.15289487	      0.00000000	     -1.74194444	    -15.00795801	     -4.25289521	     73.61269777	      1.28478395	     -4.84181827	    -24.87330565	      0.00000000
     24.32000000	      0.90033627	    -11.44598304	     -5.85244750	      2.23560724	      0.97506723	      1.02157422	     24.60734469	     20.01975413	      5.54003125	     47.75833995	      0.83354028	     14.36128566	    -19.81971319	      0.00000000	      1.04939194	    -15.57697575	     -3.90287171	     75.59329835	      1.31935195	     -3.80747632	    -25.13786095	      0.00000000
     24.32666667	      1.37138002	    -11.49825215	     -5.93757248	      2.23384196	      0.97304270	      1.02092387	     23.50517454	     20.25618789	      6.15967349	     48.72805287	      0.85046496	     15.68101252	    -20.00721616	      0.00000000	      2.15667510	    -15.75348231	     -3.61131211	     77.08996283	      1.34547367	     -3.17454563	    -25.66476512	      0.00000000
     24.33333333	      1.46485714	    -11.49007677	     -6.01954989	      2.23238343	      0.97092540	      1.02018848	     22.67398957	     20.36655754	      6.64352530	     49.46942993	      0.86340443	     17.05922055	    -20.19995276	      0.00000000	      3.73072959	    -15.90205310	     -3.24517095	     78.50122022	      1.37010476	     -2.33960432	    -26.04773489	      0.00000000
     24.34000000	      0.23894082	    -11.21270343	     -5.85563294	      2.23076435	      0.96758809	      1.01932771	     23.36765158	     20.11503099	      6.63551553	     50.15008009	      0.87528402	     18.17465275	    -20.20159542	      0.00000000	      7.16781374	    -15.78189575	     -2.16055862	     80.09410648	      1.39790587	     -1.57094237	    -26.18262985	      0.00000000
     24.34666667	      0.53652275	    -11.07196482	     -5.92177442	      2.22910903	      0.96684681	      1.01854096	     22.03651495	     20.02679081	      7.25839528	     50.40456836	      0.87972568	     19.19677307	    -20.22003279	      0.00000000	      8.55643210	    -15.66806525	     -1.79664593	     81.09034263	      1.41529347	     -0.88620145	    -26.38601107	      0.00000000
     24.35333333	      0.30384740	    -10.81846200	     -5.40609987	      2.22754279	      0.96581954	      1.01700937	     21.37051251	     19.48116864	      6.97513287	     50.49388316	      0.88128451	     20.21658587	    -19.86101140	      0.00000000	     10.86702133	    -15.28511297	     -0.63272851	     82.07992928	      1.43256502	     -0.03983890	    -26.18334273	      0.00000000
     24.36000000	      0.44598836	    -10.54469462	     -5.41678078	      2.22617309	      0.96594959	      1.01627115	     19.98327831	     19.18001488	      7.52745122	     50.31919347	      0.87823560	     21.04067537	    -19.77596708	      0.00000000	     12.40279428	    -14.97498088	     -0.25039963	     82.64296417	      1.44239183	      0.67148628	    -26.17407842	      0.00000000
     24.36666667	      0.52316423	    -10.17602404	     -4.77914568	      2.22484813	      0.96635924	      1.01467606	     18.75978243	     18.40471521	      7.14602560	     49.98524462	      0.87240710	     21.84573903	    -19.26663367	      0.00000000	     14.25774347	    -14.32794317	      0.82541460	     83.08592342	      1.45012293	      1.54946015	    -25.72333300	      0.00000000
     24.37333333	      0.54420288	     -9.85121251	     -4.80259393	      2.22367340	      0.96731553	      1.01413902	     17.33666759	     18.01891651	      7.67266443	     49.46849010	      0.86338803	     22.38786950	    -19.01198325	      0.00000000	     15.81882349	    -13.90657643	      1.16417218	     83.20091241	      1.45212986	      2.22842800	    -25.58846901	      0.00000000
     24.38000000	      0.95871656	     -9.41982618	     -3.90057860	      2.22278614	      0.96905989	      1.01235347	     15.57485619	     17.02434358	      6.95575595	     48.74038947	      0.85068027	     23.06828404	    -18.18959750	      0.00000000	     17.15921166	    -13.04700372	      2.25410864	     83.09363847	      1.45025758	      3.13072679	    -25.01585863	      0.00000000
     24.38666667	      0.83759598	     -9.02418206	     -3.88831167	      2.22211130	      0.97072766	      1.01201235	     14.15985968	     16.54013576	      7.42174630	     47.92131245	      0.83638468	     23.41215891	    -17.87422532	      0.00000000	     18.69928723	    -12.56283370	      2.45405158	     82.71465722	      1.44364311	      3.82876105	    -24.77382413	      0.00000000
     24.39333333	      1.61865596	     -8.43805433	     -3.02034489	      2.22164386	      0.97385379	      1.01053410	     11.80149194	     15.40463949	      6.76294028	     46.86294847	      0.81791275	     23.86223667	    -16.91701229	      0.00000000	     19.32277096	    -11.50659000	      3.23249044	     82.01144607	      1.43136976	      4.67752400	    -24.25097608	      0.00000000
     24.40000000	      1.35274592	     -8.01548788	     -3.01729264	      2.22136497	      0.97610661	      1.01042751	     10.43936862	     14.87676574	      7.17835111	     45.80961033	      0.79952853	     23.91313766	    -16.51556256	      0.00000000	     20.82254743	    -11.00597847	      3.29683321	     81.17843214	      1.41683092	      5.33652459	    -23.98804275	      0.00000000
     24.40666667	      2.49463553	     -7.23705996	     -2.34907713	      2.22131821	      0.98055491	      1.00939835	      7.50503218	     13.60948046	      6.76002042	     44.47064344	      0.77615915	     24.04999599	    -15.44758667	      0.00000000	     20.65617434	     -9.82840960	      3.57430613	     79.85907627	      1.39380382	      5.99041146	    -23.79577012	      0.00000000
